<svg xmlns="http://www.w3.org/2000/svg" xmlns:xlink="http://www.w3.org/1999/xlink" viewBox="0 0 317.14 282.81"><defs><style>.cls-1{fill:#991914;}.cls-1,.cls-3,.cls-4,.cls-5{stroke:#1d1d1b;stroke-miterlimit:10;}.cls-1,.cls-5{stroke-width:4px;}.cls-2{fill:#010101;}.cls-3,.cls-4{stroke-width:5px;}.cls-3{fill:url(#radial-gradient);}.cls-4{fill:url(#radial-gradient-2);}.cls-5{fill:none;}.cls-6{font-size:36px;font-family:Krungthep;}.cls-6,.cls-7{fill:#1d1d1b;}.cls-7{font-size:12px;font-family:MyriadPro-Regular, Myriad Pro;}</style><radialGradient id="radial-gradient" cx="126.04" cy="209.72" fx="152.38061943136873" fy="162.09676471818292" r="63.64" gradientUnits="userSpaceOnUse"><stop offset="0" stop-color="#f3997b"/><stop offset="0.11" stop-color="#f08165"/><stop offset="0.38" stop-color="#e94a31"/><stop offset="0.51" stop-color="#d92f26"/><stop offset="0.64" stop-color="#ca181d"/></radialGradient><radialGradient id="radial-gradient-2" cx="169.23" cy="124.46" r="69.52" gradientUnits="userSpaceOnUse"><stop offset="0.34" stop-color="#f3997b"/><stop offset="0.34" stop-color="#f08165"/><stop offset="0.34" stop-color="#e94a31"/><stop offset="0.45" stop-color="#df392a"/><stop offset="0.63" stop-color="#d32723"/><stop offset="0.8" stop-color="#cc1c1e"/><stop offset="1" stop-color="#ca181d"/></radialGradient></defs><g id="Layer_1" data-name="Layer 1"><path class="cls-1" d="M199.91,208.39c-7.35-17.27-21.84-34.54-41.73-47.73h0c-19.9-13.2-41.35-19.76-59.93-19.69-18.07.07-33.35,6.43-41.55,19.09s-7.86,29.36-.71,46.16c7.35,17.27,21.85,34.55,41.74,47.73h0c19.9,13.2,41.35,19.75,59.93,19.68,18.07-.06,33.35-6.43,41.54-19.08s7.87-29.36.71-46.16Z"/><path class="cls-2" d="M165.25,231.59a2.22,2.22,0,0,1,1.82,4c-6.74,3-15.53,3.62-25,1.78A84.15,84.15,0,0,1,91.41,204c-5.49-8.13-8.39-16.54-8.08-24a2.22,2.22,0,0,1,4.43.18c-.27,6.5,2.35,14,7.33,21.35a79.76,79.76,0,0,0,47.77,31.52c8.63,1.67,16.48,1.2,22.38-1.47Z"/><path class="cls-3" d="M159.17,159.17h0l-.84-.54h0c-20.26-13.08-42.15-19.57-61.25-19.5-19.87.07-36.8,7.21-46.1,21.39s-9.09,32.55-1.24,50.79C57.36,229,72.24,246.64,92.6,260.06h0l.3.19c20.51,13.44,42.74,20.12,62.1,20.05,19.87-.07,36.8-7.21,46.1-21.39s9.09-32.56,1.24-50.79C194.69,190.35,179.69,172.62,159.17,159.17Z"/><path class="cls-4" d="M256.21,144.59c-1.06-15.08-5.63-37.14-21-56.27a91.52,91.52,0,0,0-16.62-15.93h0c-20.49-15.27-47.23-22.48-72-18.42-33.13,5.43-57.38,29.66-63,41.39-1.89,3.94-2.15,7.17-.8,9.59,2.45,4.33,8,3.24,9.79,2.89a103.79,103.79,0,0,0,11.58-3.41C120.51,99,147.9,89.91,174.65,101c14,5.81,22.82,14.88,28.67,20.9,21.51,22.12,27.85,47.37,31.29,60.93.85,3.37,1.51,6,2.24,8,1.38,3.81,3.56,5.58,6.43,5.23,3.05-.35,5.5-3,7.71-8.47C254.26,179.57,257.61,163.54,256.21,144.59Z"/><path class="cls-2" d="M165.25,231.59a2.22,2.22,0,0,1,1.82,4c-6.74,3-15.53,3.62-25,1.78A84.15,84.15,0,0,1,91.41,204c-5.49-8.13-8.39-16.54-8.08-24a2.22,2.22,0,0,1,4.43.18c-.27,6.5,2.35,14,7.33,21.35a79.76,79.76,0,0,0,47.77,31.52c8.63,1.67,16.48,1.2,22.38-1.47Z"/><path class="cls-5" d="M202.77,208.39c-7.35-17.27-21.84-34.54-41.73-47.73h0c-19.9-13.2-41.35-19.76-59.93-19.69C83,141,67.75,147.4,59.55,160.06s-7.86,29.36-.71,46.16c7.35,17.27,21.85,34.55,41.74,47.73h0c19.9,13.2,41.35,19.75,59.93,19.68,18.07-.06,33.35-6.43,41.54-19.08s7.87-29.36.72-46.16Z"/></g><g id="Layer_2" data-name="Layer 2"><text class="cls-6" transform="translate(21.52 105.53) rotate(-42.42)">T</text><text class="cls-6" transform="matrix(0.77, -0.64, 0.64, 0.77, 34.52, 93.53)">H</text><text class="cls-6" transform="matrix(0.8, -0.59, 0.59, 0.8, 52.68, 78.41)">E</text><text class="cls-6" transform="translate(69.41 66.2) rotate(-33.82)"> </text><text class="cls-6" transform="matrix(0.86, -0.51, 0.51, 0.86, 76.28, 61.3)">H</text><text class="cls-6" transform="translate(96.34 49.41) rotate(-24.2)">A</text><text class="cls-6" transform="translate(117.44 39.87) rotate(-16.34)">L</text><text class="cls-6" transform="translate(136.69 34.12) rotate(-7.71)">F</text><text class="cls-6" transform="translate(156.91 31.73) rotate(-1.94)"> </text><text class="cls-6" transform="matrix(0.99, 0.11, -0.11, 0.99, 164.87, 30.44)">M</text><text class="cls-6" transform="matrix(0.95, 0.32, -0.32, 0.95, 199.3, 34.5)">O</text><text class="cls-6" transform="translate(220.95 41.54) rotate(30.31)">O</text><text class="cls-6" transform="translate(240.66 52.63) rotate(44.05)">N</text><text class="cls-6" transform="matrix(0.59, 0.81, -0.81, 0.59, 258.79, 71.14)"> </text><text class="cls-6" transform="translate(263.86 77.29) rotate(61.76)">S</text><text class="cls-6" transform="translate(273.43 94.76) rotate(72.28)">O</text><text class="cls-6" transform="translate(280.39 116.78) rotate(80.7)">C</text><text class="cls-6" transform="translate(284.13 140.02) rotate(84.75)">I</text><text class="cls-6" transform="matrix(-0.03, 1, -1, -0.03, 285.89, 157.19)">E</text><text class="cls-6" transform="translate(285.3 177.35) rotate(99.37)">T</text><text class="cls-6" transform="translate(282.84 194.24) rotate(108.32)">Y</text><text class="cls-7" transform="translate(275.02 216.23) rotate(114.13)"> </text></g></svg>